<svg width="34" height="25" viewBox="0 0 34 25" fill="none" xmlns="http://www.w3.org/2000/svg">
<path d="M33.9003 23.2157C33.9153 23.1864 33.9252 23.162 33.9352 23.1326C33.9751 22.9811 34 22.8247 34 22.6633V2.34706C33.9801 1.67735 33.6312 1.06141 33.068 0.689891C32.4101 0.230379 31.6227 -0.00915326 30.8153 0.000623583H3.18968C2.38229 -0.0140417 1.59484 0.230379 0.936969 0.689891C0.368807 1.06141 0.0249194 1.67735 0 2.34706V22.6633C0 22.8198 0.0249194 22.9811 0.0647904 23.1326C0.0747581 23.162 0.0847259 23.1864 0.0996775 23.2157C0.139549 23.3379 0.189387 23.4553 0.249194 23.5677C0.249194 23.5824 0.264145 23.5872 0.274113 23.6019C0.443565 23.8806 0.667839 24.1201 0.931985 24.3107C1.07153 24.4134 1.22105 24.5014 1.37555 24.5796L1.40545 24.5991C1.55497 24.6725 1.71445 24.736 1.87394 24.7849L1.95368 24.8142C2.10818 24.8582 2.26766 24.8973 2.42715 24.9218C2.472 24.9218 2.51187 24.9462 2.55174 24.9511C2.76107 24.9853 2.97537 25 3.18968 25H30.8253C31.0396 25 31.2489 24.9853 31.4632 24.9511C31.5081 24.9511 31.5479 24.9316 31.5928 24.9218C31.7523 24.8973 31.9118 24.8582 32.0663 24.8142C32.0962 24.8142 32.1211 24.7947 32.146 24.78C32.3055 24.7311 32.46 24.6676 32.6095 24.5943L32.6394 24.5747C32.7939 24.4965 32.9434 24.4085 33.083 24.3058C33.3471 24.1152 33.5714 23.8757 33.7408 23.597C33.7408 23.5824 33.7608 23.5726 33.7658 23.5579C33.8156 23.4504 33.8654 23.3379 33.9003 23.2157ZM31.8769 20.1311L21.5104 12.5052L31.8769 4.87438V20.1311ZM2.43712 1.7849C2.65641 1.63336 2.92055 1.55025 3.18968 1.55514H30.8253C31.0944 1.55025 31.3585 1.63336 31.5778 1.7849C31.8868 1.97555 31.9815 2.38128 31.7822 2.68437C31.7274 2.76747 31.6576 2.83591 31.5778 2.88479L17.7625 13.0527C17.309 13.3509 16.7159 13.3509 16.2624 13.0527L2.43712 2.88479C2.12811 2.69414 2.03342 2.2884 2.23278 1.98532C2.28261 1.90711 2.35239 1.83867 2.43712 1.7849ZM12.4946 12.5003L2.12811 20.1311V4.87438L12.4946 12.5003ZM3.18968 23.4455C3.05013 23.4455 2.91557 23.4259 2.781 23.3868C2.65641 23.3477 2.54178 23.2891 2.43712 23.2108C2.34242 23.1424 2.26766 23.0593 2.20786 22.9615C2.15303 22.8686 2.12313 22.766 2.12313 22.6584C2.12811 22.4385 2.24274 22.2332 2.42715 22.1109L13.9897 13.6002L14.7423 14.1526C16.0979 15.0667 17.8871 15.0667 19.2477 14.1526L20.0003 13.6002L31.5629 22.1109C31.7473 22.2332 31.8619 22.4385 31.8669 22.6584C31.8669 22.766 31.837 22.8686 31.7822 22.9615C31.7274 23.0593 31.6476 23.1424 31.5529 23.2108C31.4483 23.2891 31.3336 23.3477 31.209 23.3868C31.0745 23.4259 30.9399 23.4455 30.8004 23.4455H3.18968Z" fill="#0370EC"/>
</svg>
