<svg width="174" height="50" viewBox="0 0 174 50" fill="none" xmlns="http://www.w3.org/2000/svg">
<g clip-path="url(#clip0)">
<path d="M67.9104 17.0513C68.859 17.5214 69.6351 18.1624 70.1525 19.0171C70.67 19.8718 70.9287 20.8975 70.9287 22.0513C70.9287 23.2052 70.67 24.2308 70.1525 25.0855C69.6351 25.9402 68.9021 26.5812 67.9104 27.0513C66.9618 27.5214 65.7977 27.7351 64.5041 27.7351H61.9602V31.7522H57.864V16.3676H64.5041C65.7977 16.3676 66.9187 16.5812 67.9104 17.0513ZM66.1426 23.718C66.5738 23.3334 66.7894 22.7778 66.7894 22.0513C66.7894 21.3248 66.5738 20.7693 66.1426 20.3846C65.7114 20 65.0647 19.7864 64.2454 19.7864H61.9602V24.3163H64.2454C65.0647 24.3163 65.7114 24.1026 66.1426 23.718Z" fill="white"/>
<path d="M86.9253 16.3676L80.9319 28.2906C80.2852 29.5727 79.5091 30.5556 78.6036 31.1966C77.6981 31.8376 76.6633 32.1795 75.5853 32.1795C74.7661 32.1795 73.9469 32.0086 73.0414 31.624L74.0331 28.4188C74.5936 28.5898 75.0679 28.6752 75.4991 28.6752C75.8872 28.6752 76.2752 28.5898 76.5771 28.3761C76.8789 28.2052 77.1807 27.8633 77.4394 27.4787L71.8341 16.3676H76.1459L79.5091 23.8035L83.0016 16.3676H86.9253Z" fill="white"/>
<path d="M102.793 28.3334V34.5727H99.0414V31.7949H89.7711V34.5727H86.0199V28.3334H86.5373C87.3996 28.3334 88.0033 27.6923 88.3482 26.453C88.6932 25.2137 88.9088 23.4616 88.995 21.1111L89.1675 16.3676H100.852V28.3334H102.793ZM92.1857 25.6838C92.0132 26.8376 91.7114 27.6923 91.2802 28.3334H96.7562V19.8291H92.6169L92.5738 21.4958C92.4875 23.1197 92.4013 24.5299 92.1857 25.6838Z" fill="white"/>
<path d="M119.048 16.3676V31.7949H114.995V19.8291H109.476V31.7949H105.423V16.3676H119.048Z" fill="white"/>
<path d="M132.199 17.0513C133.148 17.5214 133.924 18.1624 134.441 19.0171C134.959 19.8718 135.217 20.8975 135.217 22.0513C135.217 23.2052 134.959 24.2308 134.441 25.0855C133.924 25.9402 133.191 26.5812 132.199 27.0513C131.25 27.5214 130.086 27.7351 128.793 27.7351H126.249V31.7522H122.153V16.3676H128.793C130.086 16.3676 131.207 16.5812 132.199 17.0513ZM130.431 23.718C130.862 23.3334 131.078 22.7778 131.078 22.0513C131.078 21.3248 130.862 20.7693 130.431 20.3846C130 20 129.353 19.7864 128.534 19.7864H126.249V24.3163H128.534C129.353 24.3163 130 24.1026 130.431 23.718Z" fill="white"/>
<path d="M141.556 31.0684C140.348 30.3846 139.357 29.4445 138.667 28.2052C137.977 26.9658 137.632 25.5983 137.632 24.1026C137.632 22.5641 137.977 21.1966 138.667 20C139.357 18.7607 140.305 17.8205 141.556 17.1368C142.806 16.453 144.143 16.1111 145.695 16.1111C147.204 16.1111 148.584 16.453 149.834 17.1368C151.041 17.8205 152.033 18.7607 152.723 20C153.413 21.2393 153.758 22.6069 153.758 24.1026C153.758 25.6411 153.413 27.0086 152.723 28.2052C152.033 29.4445 151.085 30.3846 149.834 31.0684C148.627 31.7522 147.247 32.094 145.695 32.094C144.143 32.094 142.763 31.7522 141.556 31.0684ZM147.635 27.906C148.239 27.5214 148.713 27.0086 149.058 26.3676C149.403 25.6838 149.575 24.9146 149.575 24.0599C149.575 23.2052 149.403 22.4359 149.058 21.7522C148.713 21.0684 148.239 20.5556 147.635 20.2137C147.031 19.8291 146.385 19.6582 145.652 19.6582C144.919 19.6582 144.272 19.8291 143.668 20.2137C143.065 20.5983 142.59 21.1111 142.245 21.7522C141.9 22.4359 141.728 23.2052 141.728 24.0599C141.728 24.9146 141.9 25.6838 142.245 26.3676C142.59 27.0513 143.065 27.5641 143.668 27.906C144.272 28.2906 144.919 28.4616 145.652 28.4616C146.385 28.4616 147.075 28.2906 147.635 27.906Z" fill="white"/>
<path d="M169.582 31.7949V23.6325L165.874 30.2992H164.063L160.355 23.8035V31.7949H156.517V16.3676H159.881L164.968 25.2564L169.927 16.3676H173.333V31.7949H169.582Z" fill="white"/>
<path d="M30.0099 27.0513L23.7148 30.5556V23.5043L11.6849 30.2564L23.7148 37.1368L35.874 30.3846L30.0099 27.0513Z" fill="white"/>
<path opacity="0.6" d="M23.7148 10.4701V17.4359L18.2388 20.4701V26.5812L11.6849 30.2564V16.8376L23.7148 10.4701Z" fill="white"/>
<path opacity="0.6" d="M23.7148 49.9573L47.2139 36.8803V10.4701L35.874 16.7521V30.3846L23.7148 37.1368V49.9573Z" fill="white"/>
<path d="M47.2139 10.4701L23.801 -0.0427246L0.215576 10.4701L11.6849 16.8376L23.7147 10.4701V17.4359L18.2388 20.4701L23.7147 23.5043L47.2139 10.4701Z" fill="white"/>
<path opacity="0.6" d="M30.0099 20.0427V27.0513L23.7148 30.5555V23.5043L30.0099 20.0427Z" fill="white"/>
</g>
<defs>
<clipPath id="clip0">
<rect width="173.333" height="50" fill="white"/>
</clipPath>
</defs>
</svg>
