<svg width="29" height="30" viewBox="0 0 29 30" fill="none" xmlns="http://www.w3.org/2000/svg">
<path d="M22.9314 17.9906C22.3368 17.3715 21.6197 17.0405 20.8596 17.0405C20.1057 17.0405 19.3824 17.3654 18.7633 17.9845L16.8263 19.9153C16.667 19.8295 16.5076 19.7498 16.3544 19.6701C16.1337 19.5598 15.9253 19.4556 15.7475 19.3453C13.9332 18.1929 12.2843 16.6912 10.7029 14.7481C9.93672 13.7796 9.42184 12.9644 9.04793 12.1369C9.55056 11.6772 10.0164 11.1991 10.47 10.7394C10.6416 10.5677 10.8132 10.39 10.9849 10.2183C12.2721 8.93114 12.2721 7.2639 10.9849 5.97669L9.3115 4.30332C9.12149 4.11331 8.92534 3.91716 8.74146 3.72101C8.37368 3.34098 7.98752 2.94869 7.5891 2.58092C6.99453 1.99248 6.2835 1.67987 5.5357 1.67987C4.78789 1.67987 4.0646 1.99248 3.45165 2.58092C3.44552 2.58705 3.44552 2.58705 3.43939 2.59317L1.35534 4.69561C0.570753 5.4802 0.123295 6.43641 0.0252222 7.54586C-0.121887 9.33569 0.405255 11.0029 0.809806 12.094C1.80279 14.7726 3.28615 17.2551 5.49892 19.9153C8.18367 23.1211 11.4139 25.6526 15.1039 27.4363C16.5137 28.1044 18.3955 28.8951 20.4979 29.03C20.6267 29.0361 20.7615 29.0422 20.8841 29.0422C22.3 29.0422 23.4892 28.5335 24.4209 27.5221C24.427 27.5098 24.4393 27.5037 24.4454 27.4914C24.7641 27.1053 25.1319 26.7559 25.5181 26.382C25.7816 26.1307 26.0513 25.8671 26.3149 25.5913C26.9217 24.9599 27.2405 24.2244 27.2405 23.4705C27.2405 22.7104 26.9156 21.981 26.2965 21.368L22.9314 17.9906ZM25.1258 24.4451C25.1196 24.4451 25.1196 24.4512 25.1258 24.4451C24.8867 24.7025 24.6415 24.9354 24.378 25.1929C23.9795 25.5729 23.575 25.9713 23.195 26.4188C22.5759 27.0808 21.8465 27.3934 20.8902 27.3934C20.7983 27.3934 20.7002 27.3934 20.6083 27.3872C18.7878 27.2708 17.096 26.5597 15.8272 25.9529C12.3579 24.2734 9.3115 21.889 6.78 18.8672C4.68982 16.3479 3.29228 14.0187 2.36671 11.5178C1.79666 9.99155 1.58826 8.80242 1.6802 7.68071C1.7415 6.96355 2.01733 6.36898 2.52608 5.86023L4.61626 3.77005C4.91661 3.48809 5.23535 3.33485 5.54796 3.33485C5.93412 3.33485 6.24673 3.56777 6.44287 3.76392C6.449 3.77005 6.45513 3.77618 6.46126 3.78231C6.83516 4.13169 7.19068 4.49334 7.56458 4.8795C7.7546 5.07565 7.95074 5.27179 8.14689 5.47407L9.82026 7.14744C10.47 7.79717 10.47 8.39787 9.82026 9.0476C9.6425 9.22536 9.47087 9.40311 9.29312 9.57474C8.77823 10.1019 8.28787 10.5922 7.7546 11.0704C7.74234 11.0826 7.73008 11.0887 7.72395 11.101C7.19681 11.6281 7.29488 12.143 7.40521 12.4924C7.41134 12.5108 7.41747 12.5292 7.4236 12.5476C7.8588 13.6019 8.47176 14.5949 9.40345 15.7779L9.40958 15.784C11.1013 17.868 12.885 19.4924 14.8526 20.7367C15.1039 20.896 15.3614 21.0248 15.6066 21.1474C15.8272 21.2577 16.0356 21.3619 16.2134 21.4722C16.2379 21.4845 16.2624 21.5029 16.2869 21.5151C16.4953 21.6193 16.6915 21.6684 16.8938 21.6684C17.4025 21.6684 17.7213 21.3496 17.8255 21.2454L19.9218 19.1491C20.1302 18.9407 20.4612 18.6894 20.8473 18.6894C21.2274 18.6894 21.54 18.9284 21.73 19.1369C21.7361 19.143 21.7361 19.143 21.7423 19.1491L25.1196 22.5265C25.751 23.1517 25.751 23.7953 25.1258 24.4451Z" fill="#0370EC"/>
<path d="M15.674 6.90839C17.2799 7.17809 18.7388 7.93815 19.9034 9.10277C21.068 10.2674 21.8219 11.7262 22.0978 13.3322C22.1652 13.7367 22.5146 14.0187 22.913 14.0187C22.962 14.0187 23.0049 14.0125 23.054 14.0064C23.5076 13.9329 23.8079 13.5038 23.7344 13.0502C23.4034 11.1071 22.4839 9.33569 21.0803 7.93202C19.6766 6.52835 17.9051 5.60892 15.9621 5.27792C15.5085 5.20437 15.0856 5.50472 15.0059 5.95218C14.9262 6.39963 15.2204 6.83483 15.674 6.90839Z" fill="#0370EC"/>
<path d="M28.9874 12.8111C28.4419 9.6115 26.934 6.69996 24.617 4.38299C22.3 2.06602 19.3885 0.558146 16.1889 0.0126155C15.7414 -0.0670687 15.3185 0.239409 15.2388 0.686867C15.1652 1.14045 15.4656 1.56339 15.9192 1.64308C18.7756 2.12731 21.3806 3.48195 23.4524 5.54761C25.5242 7.6194 26.8727 10.2245 27.3569 13.0808C27.4244 13.4854 27.7737 13.7673 28.1722 13.7673C28.2212 13.7673 28.2641 13.7612 28.3131 13.7551C28.7606 13.6877 29.0671 13.2586 28.9874 12.8111Z" fill="#0370EC"/>
</svg>
