<svg width="40" height="40" viewBox="0 0 40 40" fill="none" xmlns="http://www.w3.org/2000/svg">
<circle cx="20" cy="20" r="20" fill="#0370EC"/>
<path d="M26.6095 23.3255C26.114 22.8096 25.5164 22.5338 24.883 22.5338C24.2547 22.5338 23.652 22.8045 23.1361 23.3204L21.522 24.9294C21.3891 24.8579 21.2563 24.7915 21.1286 24.7251C20.9448 24.6332 20.7711 24.5463 20.6229 24.4544C19.111 23.4941 17.7369 22.2426 16.4191 20.6234C15.7806 19.8163 15.3515 19.137 15.0399 18.4474C15.4588 18.0643 15.847 17.6659 16.225 17.2828C16.368 17.1398 16.511 16.9916 16.6541 16.8486C17.7267 15.7759 17.7267 14.3866 16.6541 13.3139L15.2596 11.9194C15.1012 11.7611 14.9378 11.5976 14.7845 11.4342C14.4781 11.1175 14.1563 10.7906 13.8242 10.4841C13.3288 9.99372 12.7363 9.73322 12.1131 9.73322C11.4899 9.73322 10.8872 9.99372 10.3764 10.4841C10.3713 10.4892 10.3713 10.4892 10.3662 10.4943L8.62945 12.2463C7.97563 12.9002 7.60275 13.697 7.52102 14.6215C7.39843 16.1131 7.83771 17.5024 8.17484 18.4116C9.00233 20.6438 10.2385 22.7126 12.0824 24.9294C14.3197 27.6009 17.0116 29.7105 20.0866 31.1969C21.2614 31.7537 22.8296 32.4126 24.5816 32.525C24.6889 32.5301 24.8013 32.5352 24.9034 32.5352C26.0834 32.5352 27.0743 32.1112 27.8507 31.2684C27.8558 31.2582 27.866 31.2531 27.8712 31.2429C28.1368 30.9211 28.4432 30.6299 28.765 30.3183C28.9847 30.1089 29.2094 29.8892 29.4291 29.6594C29.9348 29.1333 30.2004 28.5203 30.2004 27.892C30.2004 27.2586 29.9297 26.6508 29.4138 26.14L26.6095 23.3255ZM28.4381 28.7042C28.433 28.7042 28.433 28.7093 28.4381 28.7042C28.2389 28.9187 28.0346 29.1128 27.815 29.3274C27.4829 29.6441 27.1458 29.9761 26.8291 30.349C26.3132 30.9006 25.7054 31.1611 24.9085 31.1611C24.8319 31.1611 24.7502 31.1611 24.6736 31.156C23.1565 31.059 21.7467 30.4664 20.6894 29.9608C17.7982 28.5612 15.2596 26.5742 13.15 24.056C11.4082 21.9566 10.2436 20.0156 9.47226 17.9315C8.99722 16.6596 8.82355 15.6687 8.90017 14.7339C8.95125 14.1363 9.18111 13.6408 9.60507 13.2168L11.3469 11.475C11.5972 11.2401 11.8628 11.1124 12.1233 11.1124C12.4451 11.1124 12.7056 11.3065 12.8691 11.4699C12.8742 11.475 12.8793 11.4801 12.8844 11.4852C13.196 11.7764 13.4922 12.0778 13.8038 12.3996C13.9622 12.563 14.1256 12.7265 14.2891 12.895L15.6835 14.2895C16.225 14.831 16.225 15.3315 15.6835 15.873C15.5354 16.0211 15.3924 16.1693 15.2443 16.3123C14.8152 16.7516 14.4066 17.1602 13.9622 17.5586C13.9519 17.5688 13.9417 17.5739 13.9366 17.5842C13.4973 18.0234 13.5791 18.4525 13.671 18.7437C13.6761 18.759 13.6812 18.7743 13.6863 18.7896C14.049 19.6682 14.5598 20.4957 15.3362 21.4815L15.3413 21.4866C16.7511 23.2234 18.2375 24.577 19.8772 25.6139C20.0866 25.7467 20.3011 25.854 20.5055 25.9561C20.6894 26.0481 20.863 26.1349 21.0112 26.2268C21.0316 26.2371 21.052 26.2524 21.0725 26.2626C21.2461 26.3494 21.4096 26.3903 21.5781 26.3903C22.0021 26.3903 22.2677 26.1247 22.3546 26.0378L24.1015 24.2909C24.2751 24.1172 24.551 23.9078 24.8728 23.9078C25.1895 23.9078 25.45 24.107 25.6083 24.2807C25.6134 24.2858 25.6134 24.2858 25.6185 24.2909L28.433 27.1054C28.9592 27.6264 28.9592 28.1628 28.4381 28.7042Z" fill="white"/>
<path d="M20.5617 14.0903C21.9 14.3151 23.1157 14.9484 24.0862 15.919C25.0568 16.8895 25.685 18.1052 25.9149 19.4434C25.9711 19.7806 26.2622 20.0155 26.5943 20.0155C26.6351 20.0155 26.6709 20.0104 26.7117 20.0053C27.0897 19.944 27.34 19.5865 27.2787 19.2085C27.0029 17.5893 26.2367 16.1131 25.067 14.9433C23.8973 13.7736 22.421 13.0074 20.8018 12.7316C20.4238 12.6703 20.0714 12.9206 20.005 13.2935C19.9386 13.6663 20.1838 14.029 20.5617 14.0903Z" fill="white"/>
<path d="M31.6558 19.0093C31.2012 16.3429 29.9447 13.9166 28.0139 11.9858C26.0831 10.055 23.6568 8.79843 20.9904 8.34383C20.6175 8.27742 20.2651 8.53282 20.1987 8.9057C20.1374 9.28369 20.3877 9.63614 20.7657 9.70254C23.146 10.1061 25.3169 11.2349 27.0434 12.9563C28.7698 14.6828 29.8936 16.8537 30.2971 19.234C30.3533 19.5711 30.6445 19.8061 30.9765 19.8061C31.0174 19.8061 31.0531 19.801 31.094 19.7959C31.4669 19.7397 31.7222 19.3821 31.6558 19.0093Z" fill="white"/>
</svg>
