<svg width="76" height="75" viewBox="0 0 76 75" fill="none" xmlns="http://www.w3.org/2000/svg">
<path d="M71.5814 41.2941C70.0791 41.2941 68.9302 40.147 68.9302 38.647C68.9302 21.6176 55.0558 7.7647 38 7.7647C36.4977 7.7647 35.3488 6.61764 35.3488 5.11764C35.3488 3.61764 36.4977 2.47058 38 2.47058C57.9721 2.47058 74.2326 18.7059 74.2326 38.647C74.2326 40.147 73.0837 41.2941 71.5814 41.2941Z" fill="white"/>
<path d="M4.41862 41.2941C2.91629 41.2941 1.76746 40.147 1.76746 38.647C1.76746 29.2941 5.30234 20.3823 11.8419 13.5882C12.814 12.5294 14.493 12.5294 15.5535 13.5C16.614 14.4706 16.614 16.147 15.6419 17.2059C10.0744 23.0294 7.06978 30.6176 7.06978 38.647C7.06978 40.147 5.83257 41.2941 4.41862 41.2941Z" fill="white"/>
<path d="M5.39075 13.8529L21.2977 9.61765L16.9675 25.5L5.39075 13.8529Z" fill="white"/>
<path d="M16.9675 26.3824C16.7024 26.3824 16.5256 26.2941 16.3489 26.1176L4.77213 14.4706C4.50702 14.2059 4.41864 13.9412 4.50702 13.5882C4.59539 13.3235 4.86051 13.0588 5.12562 12.9706L21.0326 8.7353C21.2977 8.64706 21.6512 8.7353 21.9163 9C22.1814 9.26471 22.2698 9.52942 22.1814 9.88236L17.9396 25.7647C17.8512 26.0294 17.5861 26.2941 17.321 26.3824C17.1442 26.3824 17.0559 26.3824 16.9675 26.3824ZM7.06981 14.3824L16.5256 23.8235L19.9721 10.8529L7.06981 14.3824Z" fill="white"/>
<path d="M38 74.8235C18.0279 74.8235 1.76746 58.5882 1.76746 38.6471C1.76746 37.1471 2.91629 36 4.41862 36C5.92094 36 7.06978 37.1471 7.06978 38.6471C7.06978 55.6765 20.9442 69.5294 38 69.5294C39.5023 69.5294 40.6512 70.6765 40.6512 72.1765C40.6512 73.6765 39.5023 74.8235 38 74.8235Z" fill="white"/>
<path d="M62.214 64.5882C61.5954 64.5882 60.8884 64.3235 60.3582 63.8823C59.2977 62.9118 59.2977 61.2353 60.2698 60.1765C65.8372 54.3529 68.9302 46.7647 68.9302 38.7353C68.9302 37.2353 70.0791 36.0882 71.5814 36.0882C73.0837 36.0882 74.2326 37.2353 74.2326 38.7353C74.2326 48.1765 70.6093 57.0882 64.0698 63.8823C63.6279 64.3235 62.9209 64.5882 62.214 64.5882Z" fill="white"/>
<path d="M70.6093 63.4412L54.7023 67.6765L59.0326 51.7941L70.6093 63.4412Z" fill="white"/>
<path d="M54.7024 68.5588C54.4372 68.5588 54.2605 68.4706 54.0837 68.2941C53.8186 68.0294 53.7303 67.7647 53.8186 67.4118L58.0605 51.5294C58.1489 51.2647 58.414 51 58.6791 50.9118C58.9442 50.8235 59.2977 50.9118 59.5628 51.1765L71.2279 62.8235C71.493 63.0882 71.5814 63.353 71.493 63.7059C71.4047 64.0588 71.1396 64.2353 70.8744 64.3235L54.9675 68.5588C54.8791 68.5588 54.7907 68.5588 54.7024 68.5588ZM59.4744 53.5588L56.0279 66.5294L68.9303 63L59.4744 53.5588Z" fill="white"/>
<path d="M18.293 50.3823L24.214 41.4706L18.3814 32.7353H25.0977L27.7488 37.0588L30.4 32.7353H36.9395L31.0186 41.4706L36.9395 50.3823H30.3116L27.5721 45.8823L24.8326 50.3823H18.293Z" fill="#0077FF"/>
<path d="M47.6326 50.8235C43.5674 50.8235 40.2977 49.5 37.9116 46.7647L41.8884 42.7941C43.5674 44.5588 45.4232 45.4412 47.3674 45.4412C48.2512 45.4412 48.9581 45.2647 49.4884 44.8235C50.0186 44.3824 50.2837 43.8529 50.2837 43.0588C50.2837 42.3529 49.9302 41.7353 49.3116 41.2941C48.693 40.8529 47.7209 40.6765 46.5721 40.6765H43.9209L43.0372 37.4118L48.3395 32.6471H39.5907V27.5294H56.1163V32.0294L50.6372 36.7059C54.6139 37.5882 56.5581 39.7059 56.5581 43.2353C56.5581 45.5294 55.7628 47.3824 54.0837 48.7941C52.3163 50.1177 50.1953 50.8235 47.6326 50.8235Z" fill="#0077FF"/>
</svg>
